<svg xmlns="http://www.w3.org/2000/svg" width="1em" height="1em" viewBox="0 0 141.38 140" data-aplus-clk="x25_35d63fa2" data-spm-anchor-id="5176.28197581.d_index.i25.d25929a4lgKbdK"><defs><style>.cls-1{fill:#fff;}.cls-2{fill:#615ced;}</style></defs><g id="_品牌"><g><g><polygon class="cls-1" points="51.44 3.33 61.07 20 51.44 36.67 128.43 36.67 118.81 53.33 45.67 53.33 34.12 33.33 51.44 3.33"></polygon><polygon class="cls-1" points="12.96 36.66 32.2 36.66 68.77 100 57.21 120 22.58 120 32.2 103.33 51.45 103.33 12.96 36.66"></polygon><polygon class="cls-1" points="61.06 120 70.69 136.67 109.18 70 118.8 86.66 138.05 86.66 120.73 56.67 97.63 56.67 61.06 120"></polygon></g><path class="cls-2" d="M140.93,85l-16.35-28.33-1.93-3.34,8.66-15c.3-.51,.45-1.09,.45-1.67s-.15-1.15-.45-1.67l-9.62-16.67c-.3-.51-.72-.93-1.22-1.22-.5-.29-1.07-.45-1.67-.45h-36.57L73.58,1.67c-.59-1.03-1.69-1.67-2.89-1.67h-19.25c-.59,0-1.17,.16-1.66,.45-.5,.29-.92,.71-1.22,1.22l-16.36,28.33-1.92,3.33H12.96c-.59,0-1.17,.16-1.66,.45-.5,.29-.93,.71-1.22,1.22L.45,51.66c-.3,.51-.45,1.09-.45,1.67s.15,1.15,.45,1.67l18.28,31.67-8.66,15c-.3,.52-.45,1.09-.45,1.67s.15,1.15,.45,1.67l9.62,16.67c.3,.51,.72,.93,1.22,1.22,.5,.29,1.07,.45,1.67,.45H59.14l8.66,15h0c.59,1.03,1.69,1.66,2.89,1.67h19.25c.59,0,1.17-.16,1.67-.45,.5-.29,.92-.71,1.22-1.22l18.28-31.67h17.32c.6,0,1.17-.16,1.67-.45,.5-.29,.92-.71,1.22-1.22l9.62-16.67c.3-.51,.45-1.09,.45-1.67s-.15-1.15-.45-1.67ZM51.44,3.33l9.63,16.67-9.63,16.66h76.98l-9.62,16.66H45.67l-11.54-20L51.44,3.33Zm5.77,116.67H22.58l9.63-16.67h19.25L12.96,36.66h19.25l9.62,16.67,26.95,46.67-11.55,20Zm61.58-33.33l-9.62-16.67-38.49,66.67-9.63-16.67,9.63-16.66,26.94-46.67h23.1l17.32,30h-19.25Z" data-spm-anchor-id="5176.28197581.d_index.i26.d25929a4lgKbdK"></path></g></g></svg>